<svg xmlns="http://www.w3.org/2000/svg" viewBox="0 0 120 120"><path fill="#61DAFB" d="M60 0C26.863 0 0 26.863 0 60s26.863 60 60 60 60-26.863 60-60S93.137 0 60 0zm0 108c-26.51 0-48-21.49-48-48S33.49 12 60 12s48 21.49 48 48-21.49 48-48 48z"/><path fill="#61DAFB" d="M60 24c-19.882 0-36 16.118-36 36s16.118 36 36 36 36-16.118 36-36-16.118-36-36-36zm0 60c-13.255 0-24-10.745-24-24s10.745-24 24-24 24 10.745 24 24-10.745 24-24 24z"/><path fill="#fff" d="M60 36c-13.255 0-24 10.745-24 24s10.745 24 24 24 24-10.745 24-24-10.745-24-24-24zm0 40c-8.837 0-16-7.163-16-16s7.163-16 16-16 16 7.163 16 16-7.163 16-16 16z"/><path fill="#61DAFB" d="M60 48c-6.627 0-12 5.373-12 12s5.373 12 12 12 12-5.373 12-12-5.373-12-12-12z"/></svg>